<?xml version="1.0" encoding="UTF-8" standalone="no"?>
<!DOCTYPE svg PUBLIC "-//W3C//DTD SVG 1.1//EN"
 "http://www.w3.org/Graphics/SVG/1.1/DTD/svg11.dtd">
<!-- Generated by graphviz version 2.44.1 (20200629.0846)
 -->
<!-- Title: Database Structure Pages: 1 -->
<svg width="911pt" height="663pt"
 viewBox="0.00 0.00 910.86 663.00" xmlns="http://www.w3.org/2000/svg" xmlns:xlink="http://www.w3.org/1999/xlink">
<g id="graph0" class="graph" transform="scale(1 1) rotate(0) translate(4 659)">
<title>Database Structure</title>
<polygon fill="white" stroke="transparent" points="-4,4 -4,-659 906.86,-659 906.86,4 -4,4"/>
<text text-anchor="middle" x="451.43" y="-639.8" font-family="Helvetica,sans-Serif" font-size="14.00">ER Diagram: wishlist</text>
<!-- invites -->
<g id="node1" class="node">
<title>invites</title>
<polygon fill="#dddddd" stroke="transparent" points="49.86,-497 49.86,-518 153.86,-518 153.86,-497 49.86,-497"/>
<polygon fill="none" stroke="black" points="49.86,-497 49.86,-518 153.86,-518 153.86,-497 49.86,-497"/>
<text text-anchor="start" x="83.36" y="-503.8" font-family="Times,serif" font-size="14.00">invites</text>
<polygon fill="none" stroke="black" points="49.86,-476 49.86,-497 153.86,-497 153.86,-476 49.86,-476"/>
<text text-anchor="start" x="77.36" y="-483.8" font-family="Times,serif" font-size="14.00">id:</text>
<text text-anchor="start" x="92.36" y="-483.8" font-family="Helvetica,sans-Serif" font-style="oblique" font-size="10.00">BIGINT</text>
<polygon fill="none" stroke="black" points="49.86,-455 49.86,-476 153.86,-476 153.86,-455 49.86,-455"/>
<text text-anchor="start" x="52.86" y="-462.8" font-family="Times,serif" font-size="14.00">wishlist_id:</text>
<text text-anchor="start" x="116.86" y="-462.8" font-family="Helvetica,sans-Serif" font-style="oblique" font-size="10.00">BIGINT</text>
<polygon fill="none" stroke="black" points="49.86,-434 49.86,-455 153.86,-455 153.86,-434 49.86,-434"/>
<text text-anchor="start" x="62.86" y="-441.8" font-family="Times,serif" font-size="14.00">user_id:</text>
<text text-anchor="start" x="106.86" y="-441.8" font-family="Helvetica,sans-Serif" font-style="oblique" font-size="10.00">BIGINT</text>
<polygon fill="none" stroke="black" points="49.86,-413 49.86,-434 153.86,-434 153.86,-413 49.86,-413"/>
<text text-anchor="start" x="59.86" y="-420.8" font-family="Times,serif" font-size="14.00">email:</text>
<text text-anchor="start" x="94.86" y="-420.8" font-family="Helvetica,sans-Serif" font-style="oblique" font-size="10.00">VARCHAR</text>
<polygon fill="none" stroke="black" points="49.86,-392 49.86,-413 153.86,-413 153.86,-392 49.86,-392"/>
<text text-anchor="start" x="68.86" y="-399.8" font-family="Times,serif" font-size="14.00">sent:</text>
<text text-anchor="start" x="94.86" y="-399.8" font-family="Helvetica,sans-Serif" font-style="oblique" font-size="10.00">TINYINT</text>
</g>
<!-- users -->
<g id="node3" class="node">
<title>users</title>
<polygon fill="#dddddd" stroke="transparent" points="707.86,-262 707.86,-283 859.86,-283 859.86,-262 707.86,-262"/>
<polygon fill="none" stroke="black" points="707.86,-262 707.86,-283 859.86,-283 859.86,-262 707.86,-262"/>
<text text-anchor="start" x="769.86" y="-268.8" font-family="Times,serif" font-size="14.00">users</text>
<polygon fill="none" stroke="black" points="707.86,-241 707.86,-262 859.86,-262 859.86,-241 707.86,-241"/>
<text text-anchor="start" x="759.36" y="-248.8" font-family="Times,serif" font-size="14.00">id:</text>
<text text-anchor="start" x="774.36" y="-248.8" font-family="Helvetica,sans-Serif" font-style="oblique" font-size="10.00">BIGINT</text>
<polygon fill="none" stroke="black" points="707.86,-220 707.86,-241 859.86,-241 859.86,-220 707.86,-220"/>
<text text-anchor="start" x="742.36" y="-227.8" font-family="Times,serif" font-size="14.00">name:</text>
<text text-anchor="start" x="776.36" y="-227.8" font-family="Helvetica,sans-Serif" font-style="oblique" font-size="10.00">VARCHAR</text>
<polygon fill="none" stroke="black" points="707.86,-199 707.86,-220 859.86,-220 859.86,-199 707.86,-199"/>
<text text-anchor="start" x="741.86" y="-206.8" font-family="Times,serif" font-size="14.00">email:</text>
<text text-anchor="start" x="776.86" y="-206.8" font-family="Helvetica,sans-Serif" font-style="oblique" font-size="10.00">VARCHAR</text>
<polygon fill="none" stroke="black" points="707.86,-178 707.86,-199 859.86,-199 859.86,-178 707.86,-178"/>
<text text-anchor="start" x="731.86" y="-185.8" font-family="Times,serif" font-size="14.00">password:</text>
<text text-anchor="start" x="786.86" y="-185.8" font-family="Helvetica,sans-Serif" font-style="oblique" font-size="10.00">VARCHAR</text>
<polygon fill="none" stroke="black" points="707.86,-157 707.86,-178 859.86,-178 859.86,-157 707.86,-157"/>
<text text-anchor="start" x="710.86" y="-164.8" font-family="Times,serif" font-size="14.00">remember_token:</text>
<text text-anchor="start" x="807.86" y="-164.8" font-family="Helvetica,sans-Serif" font-style="oblique" font-size="10.00">VARCHAR</text>
<polygon fill="none" stroke="black" points="707.86,-136 707.86,-157 859.86,-157 859.86,-136 707.86,-136"/>
<text text-anchor="start" x="724.86" y="-143.8" font-family="Times,serif" font-size="14.00">created_at:</text>
<text text-anchor="start" x="784.86" y="-143.8" font-family="Helvetica,sans-Serif" font-style="oblique" font-size="10.00">TIMESTAMP</text>
<polygon fill="none" stroke="black" points="707.86,-115 707.86,-136 859.86,-136 859.86,-115 707.86,-115"/>
<text text-anchor="start" x="722.86" y="-122.8" font-family="Times,serif" font-size="14.00">updated_at:</text>
<text text-anchor="start" x="786.86" y="-122.8" font-family="Helvetica,sans-Serif" font-style="oblique" font-size="10.00">TIMESTAMP</text>
</g>
<!-- invites&#45;&gt;users -->
<g id="edge1" class="edge">
<title>invites:user_id&#45;&gt;users:id</title>
<path fill="none" stroke="#444444" stroke-dasharray="5,2" d="M154.86,-444C313.07,-444 359.84,-449.45 506.86,-391 604.21,-352.3 599.06,-258.32 696.75,-252.3"/>
<polygon fill="#444444" stroke="#444444" points="706.96,-255.5 696.86,-252.3 706.75,-248.5 706.96,-255.5"/>
</g>
<!-- wishlists -->
<g id="node6" class="node">
<title>wishlists</title>
<polygon fill="#dddddd" stroke="transparent" points="370.86,-357 370.86,-378 498.86,-378 498.86,-357 370.86,-357"/>
<polygon fill="none" stroke="black" points="370.86,-357 370.86,-378 498.86,-378 498.86,-357 370.86,-357"/>
<text text-anchor="start" x="410.86" y="-363.8" font-family="Times,serif" font-size="14.00">wishlists</text>
<polygon fill="none" stroke="black" points="370.86,-336 370.86,-357 498.86,-357 498.86,-336 370.86,-336"/>
<text text-anchor="start" x="410.36" y="-343.8" font-family="Times,serif" font-size="14.00">id:</text>
<text text-anchor="start" x="425.36" y="-343.8" font-family="Helvetica,sans-Serif" font-style="oblique" font-size="10.00">BIGINT</text>
<polygon fill="none" stroke="black" points="370.86,-315 370.86,-336 498.86,-336 498.86,-315 370.86,-315"/>
<text text-anchor="start" x="381.36" y="-322.8" font-family="Times,serif" font-size="14.00">organizer_id:</text>
<text text-anchor="start" x="454.36" y="-322.8" font-family="Helvetica,sans-Serif" font-style="oblique" font-size="10.00">BIGINT</text>
<polygon fill="none" stroke="black" points="370.86,-294 370.86,-315 498.86,-315 498.86,-294 370.86,-294"/>
<text text-anchor="start" x="397.86" y="-301.8" font-family="Times,serif" font-size="14.00">title:</text>
<text text-anchor="start" x="422.86" y="-301.8" font-family="Helvetica,sans-Serif" font-style="oblique" font-size="10.00">VARCHAR</text>
<polygon fill="none" stroke="black" points="370.86,-273 370.86,-294 498.86,-294 498.86,-273 370.86,-273"/>
<text text-anchor="start" x="389.86" y="-280.8" font-family="Times,serif" font-size="14.00">description:</text>
<text text-anchor="start" x="453.86" y="-280.8" font-family="Helvetica,sans-Serif" font-style="oblique" font-size="10.00">TEXT</text>
<polygon fill="none" stroke="black" points="370.86,-252 370.86,-273 498.86,-273 498.86,-252 370.86,-252"/>
<text text-anchor="start" x="380.36" y="-259.8" font-family="Times,serif" font-size="14.00">public_url:</text>
<text text-anchor="start" x="440.36" y="-259.8" font-family="Helvetica,sans-Serif" font-style="oblique" font-size="10.00">VARCHAR</text>
<polygon fill="none" stroke="black" points="370.86,-231 370.86,-252 498.86,-252 498.86,-231 370.86,-231"/>
<text text-anchor="start" x="375.86" y="-238.8" font-family="Times,serif" font-size="14.00">created_at:</text>
<text text-anchor="start" x="435.86" y="-238.8" font-family="Helvetica,sans-Serif" font-style="oblique" font-size="10.00">TIMESTAMP</text>
<polygon fill="none" stroke="black" points="370.86,-210 370.86,-231 498.86,-231 498.86,-210 370.86,-210"/>
<text text-anchor="start" x="373.86" y="-217.8" font-family="Times,serif" font-size="14.00">updated_at:</text>
<text text-anchor="start" x="437.86" y="-217.8" font-family="Helvetica,sans-Serif" font-style="oblique" font-size="10.00">TIMESTAMP</text>
</g>
<!-- invites&#45;&gt;wishlists -->
<g id="edge2" class="edge">
<title>invites:wishlist_id&#45;&gt;wishlists:id</title>
<path fill="none" stroke="#444444" stroke-dasharray="5,2" d="M154.86,-466C260.55,-466 260.75,-354.55 359.64,-347.36"/>
<polygon fill="#444444" stroke="#444444" points="369.98,-350.5 359.86,-347.36 369.73,-343.5 369.98,-350.5"/>
</g>
<!-- migrations -->
<g id="node2" class="node">
<title>migrations</title>
<polygon fill="#dddddd" stroke="transparent" points="45.86,-607 45.86,-628 158.86,-628 158.86,-607 45.86,-607"/>
<polygon fill="none" stroke="black" points="45.86,-607 45.86,-628 158.86,-628 158.86,-607 45.86,-607"/>
<text text-anchor="start" x="72.86" y="-613.8" font-family="Times,serif" font-size="14.00">migrations</text>
<polygon fill="none" stroke="black" points="45.86,-586 45.86,-607 158.86,-607 158.86,-586 45.86,-586"/>
<text text-anchor="start" x="86.36" y="-593.8" font-family="Times,serif" font-size="14.00">id:</text>
<text text-anchor="start" x="101.36" y="-593.8" font-family="Helvetica,sans-Serif" font-style="oblique" font-size="10.00">INT</text>
<polygon fill="none" stroke="black" points="45.86,-565 45.86,-586 158.86,-586 158.86,-565 45.86,-565"/>
<text text-anchor="start" x="48.86" y="-572.8" font-family="Times,serif" font-size="14.00">migration:</text>
<text text-anchor="start" x="106.86" y="-572.8" font-family="Helvetica,sans-Serif" font-style="oblique" font-size="10.00">VARCHAR</text>
<polygon fill="none" stroke="black" points="45.86,-544 45.86,-565 158.86,-565 158.86,-544 45.86,-544"/>
<text text-anchor="start" x="76.86" y="-551.8" font-family="Times,serif" font-size="14.00">batch:</text>
<text text-anchor="start" x="110.86" y="-551.8" font-family="Helvetica,sans-Serif" font-style="oblique" font-size="10.00">INT</text>
</g>
<!-- wishlist_items -->
<g id="node4" class="node">
<title>wishlist_items</title>
<polygon fill="#dddddd" stroke="transparent" points="37.86,-345 37.86,-366 165.86,-366 165.86,-345 37.86,-345"/>
<polygon fill="none" stroke="black" points="37.86,-345 37.86,-366 165.86,-366 165.86,-345 37.86,-345"/>
<text text-anchor="start" x="62.36" y="-351.8" font-family="Times,serif" font-size="14.00">wishlist_items</text>
<polygon fill="none" stroke="black" points="37.86,-324 37.86,-345 165.86,-345 165.86,-324 37.86,-324"/>
<text text-anchor="start" x="77.36" y="-331.8" font-family="Times,serif" font-size="14.00">id:</text>
<text text-anchor="start" x="92.36" y="-331.8" font-family="Helvetica,sans-Serif" font-style="oblique" font-size="10.00">BIGINT</text>
<polygon fill="none" stroke="black" points="37.86,-303 37.86,-324 165.86,-324 165.86,-303 37.86,-303"/>
<text text-anchor="start" x="52.86" y="-310.8" font-family="Times,serif" font-size="14.00">wishlist_id:</text>
<text text-anchor="start" x="116.86" y="-310.8" font-family="Helvetica,sans-Serif" font-style="oblique" font-size="10.00">BIGINT</text>
<polygon fill="none" stroke="black" points="37.86,-282 37.86,-303 165.86,-303 165.86,-282 37.86,-282"/>
<text text-anchor="start" x="58.86" y="-289.8" font-family="Times,serif" font-size="14.00">buyer_id:</text>
<text text-anchor="start" x="110.86" y="-289.8" font-family="Helvetica,sans-Serif" font-style="oblique" font-size="10.00">BIGINT</text>
<polygon fill="none" stroke="black" points="37.86,-261 37.86,-282 165.86,-282 165.86,-261 37.86,-261"/>
<text text-anchor="start" x="60.36" y="-268.8" font-family="Times,serif" font-size="14.00">name:</text>
<text text-anchor="start" x="94.36" y="-268.8" font-family="Helvetica,sans-Serif" font-style="oblique" font-size="10.00">VARCHAR</text>
<polygon fill="none" stroke="black" points="37.86,-240 37.86,-261 165.86,-261 165.86,-240 37.86,-240"/>
<text text-anchor="start" x="56.86" y="-247.8" font-family="Times,serif" font-size="14.00">description:</text>
<text text-anchor="start" x="120.86" y="-247.8" font-family="Helvetica,sans-Serif" font-style="oblique" font-size="10.00">TEXT</text>
<polygon fill="none" stroke="black" points="37.86,-219 37.86,-240 165.86,-240 165.86,-219 37.86,-219"/>
<text text-anchor="start" x="63.36" y="-226.8" font-family="Times,serif" font-size="14.00">price:</text>
<text text-anchor="start" x="94.36" y="-226.8" font-family="Helvetica,sans-Serif" font-style="oblique" font-size="10.00">DECIMAL</text>
<polygon fill="none" stroke="black" points="37.86,-198 37.86,-219 165.86,-219 165.86,-198 37.86,-198"/>
<text text-anchor="start" x="53.36" y="-205.8" font-family="Times,serif" font-size="14.00">img_url:</text>
<text text-anchor="start" x="101.36" y="-205.8" font-family="Helvetica,sans-Serif" font-style="oblique" font-size="10.00">VARCHAR</text>
<polygon fill="none" stroke="black" points="37.86,-177 37.86,-198 165.86,-198 165.86,-177 37.86,-177"/>
<text text-anchor="start" x="51.36" y="-184.8" font-family="Times,serif" font-size="14.00">shop_url:</text>
<text text-anchor="start" x="103.36" y="-184.8" font-family="Helvetica,sans-Serif" font-style="oblique" font-size="10.00">VARCHAR</text>
<polygon fill="none" stroke="black" points="37.86,-156 37.86,-177 165.86,-177 165.86,-156 37.86,-156"/>
<text text-anchor="start" x="52.36" y="-163.8" font-family="Times,serif" font-size="14.00">purchased:</text>
<text text-anchor="start" x="111.36" y="-163.8" font-family="Helvetica,sans-Serif" font-style="oblique" font-size="10.00">TINYINT</text>
<polygon fill="none" stroke="black" points="37.86,-135 37.86,-156 165.86,-156 165.86,-135 37.86,-135"/>
<text text-anchor="start" x="42.86" y="-142.8" font-family="Times,serif" font-size="14.00">created_at:</text>
<text text-anchor="start" x="102.86" y="-142.8" font-family="Helvetica,sans-Serif" font-style="oblique" font-size="10.00">TIMESTAMP</text>
<polygon fill="none" stroke="black" points="37.86,-114 37.86,-135 165.86,-135 165.86,-114 37.86,-114"/>
<text text-anchor="start" x="40.86" y="-121.8" font-family="Times,serif" font-size="14.00">updated_at:</text>
<text text-anchor="start" x="104.86" y="-121.8" font-family="Helvetica,sans-Serif" font-style="oblique" font-size="10.00">TIMESTAMP</text>
</g>
<!-- wishlist_items&#45;&gt;users -->
<g id="edge3" class="edge">
<title>wishlist_items:buyer_id&#45;&gt;users:id</title>
<path fill="none" stroke="#444444" stroke-dasharray="5,2" d="M166.86,-293C263.86,-293 268.36,-218.9 362.86,-197 425.2,-182.55 443.43,-188.44 506.86,-197 594.74,-208.86 613.31,-248.79 696.65,-251.82"/>
<polygon fill="#444444" stroke="#444444" points="706.79,-255.5 696.86,-251.82 706.92,-248.5 706.79,-255.5"/>
</g>
<!-- wishlist_items&#45;&gt;wishlists -->
<g id="edge4" class="edge">
<title>wishlist_items:wishlist_id&#45;&gt;wishlists:id</title>
<path fill="none" stroke="#444444" stroke-dasharray="5,2" d="M166.86,-314C254.78,-314 276.81,-344.53 359.72,-346.86"/>
<polygon fill="#444444" stroke="#444444" points="369.81,-350.5 359.86,-346.86 369.91,-343.5 369.81,-350.5"/>
</g>
<!-- wishlist_users -->
<g id="node5" class="node">
<title>wishlist_users</title>
<polygon fill="#dddddd" stroke="transparent" points="49.86,-67 49.86,-88 153.86,-88 153.86,-67 49.86,-67"/>
<polygon fill="none" stroke="black" points="49.86,-67 49.86,-88 153.86,-88 153.86,-67 49.86,-67"/>
<text text-anchor="start" x="63.36" y="-73.8" font-family="Times,serif" font-size="14.00">wishlist_users</text>
<polygon fill="none" stroke="black" points="49.86,-46 49.86,-67 153.86,-67 153.86,-46 49.86,-46"/>
<text text-anchor="start" x="77.36" y="-53.8" font-family="Times,serif" font-size="14.00">id:</text>
<text text-anchor="start" x="92.36" y="-53.8" font-family="Helvetica,sans-Serif" font-style="oblique" font-size="10.00">BIGINT</text>
<polygon fill="none" stroke="black" points="49.86,-25 49.86,-46 153.86,-46 153.86,-25 49.86,-25"/>
<text text-anchor="start" x="52.86" y="-32.8" font-family="Times,serif" font-size="14.00">wishlist_id:</text>
<text text-anchor="start" x="116.86" y="-32.8" font-family="Helvetica,sans-Serif" font-style="oblique" font-size="10.00">BIGINT</text>
<polygon fill="none" stroke="black" points="49.86,-4 49.86,-25 153.86,-25 153.86,-4 49.86,-4"/>
<text text-anchor="start" x="62.86" y="-11.8" font-family="Times,serif" font-size="14.00">user_id:</text>
<text text-anchor="start" x="106.86" y="-11.8" font-family="Helvetica,sans-Serif" font-style="oblique" font-size="10.00">BIGINT</text>
</g>
<!-- wishlist_users&#45;&gt;users -->
<g id="edge5" class="edge">
<title>wishlist_users:user_id&#45;&gt;users:id</title>
<path fill="none" stroke="#444444" stroke-dasharray="5,2" d="M154.86,-14C285.18,-14 559.46,-240.52 696.81,-251.58"/>
<polygon fill="#444444" stroke="#444444" points="706.71,-255.5 696.87,-251.58 707,-248.5 706.71,-255.5"/>
</g>
<!-- wishlist_users&#45;&gt;wishlists -->
<g id="edge6" class="edge">
<title>wishlist_users:wishlist_id&#45;&gt;wishlists:id</title>
<path fill="none" stroke="#444444" stroke-dasharray="5,2" d="M154.86,-35C319.81,-35 206.33,-334.33 359.86,-346.61"/>
<polygon fill="#444444" stroke="#444444" points="369.72,-350.5 359.86,-346.61 369.99,-343.5 369.72,-350.5"/>
</g>
<!-- wishlists&#45;&gt;users -->
<g id="edge7" class="edge">
<title>wishlists:organizer_id&#45;&gt;users:id</title>
<path fill="none" stroke="#444444" stroke-dasharray="5,2" d="M499.86,-326C594.03,-326 608.2,-257.25 696.6,-252.28"/>
<polygon fill="#444444" stroke="#444444" points="706.95,-255.5 696.86,-252.28 706.76,-248.5 706.95,-255.5"/>
</g>
</g>
</svg>
